<svg xmlns="http://www.w3.org/2000/svg" xmlns:xlink="http://www.w3.org/1999/xlink" width="500" zoomAndPan="magnify" viewBox="0 0 375 374.999991" height="500" preserveAspectRatio="xMidYMid meet" version="1.0"><defs><g/><clipPath id="2b374eb44c"><path d="M 139 159 L 241 159 L 241 226.828125 L 139 226.828125 Z M 139 159 " clip-rule="nonzero"/></clipPath><clipPath id="062b68c853"><path d="M 92.125 79.078125 L 265.375 79.078125 L 265.375 189 L 92.125 189 Z M 92.125 79.078125 " clip-rule="nonzero"/></clipPath><clipPath id="2382dabc19"><path d="M 120 79.078125 L 249 79.078125 L 249 177 L 120 177 Z M 120 79.078125 " clip-rule="nonzero"/></clipPath></defs><rect x="-37.5" width="450" fill="#ffffff" y="-37.499999" height="449.999989" fill-opacity="1"/><rect x="-37.5" width="450" fill="#ffffff" y="-37.499999" height="449.999989" fill-opacity="1"/><g fill="#272626" fill-opacity="1"><g transform="translate(135.461496, 268.936997)"><g><path d="M 13.390625 -20.578125 L 13.390625 -16.453125 L 6.1875 -16.453125 L 6.1875 -12.375 L 12.84375 -12.375 L 12.84375 -8.25 L 6.1875 -8.25 L 6.1875 0 L 1.5 0 L 1.5 -20.578125 Z M 13.390625 -20.578125 "/></g></g></g><g fill="#272626" fill-opacity="1"><g transform="translate(153.488698, 268.936997)"><g><path d="M 1.5 -20.578125 L 8.859375 -20.578125 C 10.835938 -20.578125 12.445312 -20.046875 13.6875 -18.984375 C 14.9375 -17.929688 15.5625 -16.425781 15.5625 -14.46875 C 15.5625 -12.945312 15.179688 -11.675781 14.421875 -10.65625 C 13.671875 -9.632812 12.644531 -8.914062 11.34375 -8.5 L 18.421875 0 L 12.46875 0 L 6.1875 -8.125 L 6.1875 0 L 1.5 0 Z M 6.1875 -11.453125 L 6.734375 -11.453125 C 7.160156 -11.453125 7.523438 -11.457031 7.828125 -11.46875 C 8.128906 -11.488281 8.46875 -11.546875 8.84375 -11.640625 C 9.226562 -11.742188 9.535156 -11.882812 9.765625 -12.0625 C 10.003906 -12.25 10.207031 -12.515625 10.375 -12.859375 C 10.539062 -13.210938 10.625 -13.640625 10.625 -14.140625 C 10.625 -14.640625 10.539062 -15.0625 10.375 -15.40625 C 10.207031 -15.757812 10.003906 -16.023438 9.765625 -16.203125 C 9.535156 -16.390625 9.226562 -16.53125 8.84375 -16.625 C 8.46875 -16.726562 8.128906 -16.785156 7.828125 -16.796875 C 7.523438 -16.816406 7.160156 -16.828125 6.734375 -16.828125 L 6.1875 -16.828125 Z M 6.1875 -11.453125 "/></g></g></g><g fill="#272626" fill-opacity="1"><g transform="translate(175.230687, 268.936997)"><g><path d="M 11.9375 -20.578125 L 20.25 0 L 15.21875 0 L 13.6875 -4.109375 L 5.859375 -4.109375 L 4.34375 0 L -0.703125 0 L 7.609375 -20.578125 Z M 12.09375 -8.234375 L 9.796875 -14.21875 L 9.75 -14.21875 L 7.453125 -8.234375 Z M 12.09375 -8.234375 "/></g></g></g><g fill="#272626" fill-opacity="1"><g transform="translate(198.668029, 268.936997)"><g><path d="M 17.3125 -20.578125 L 17.3125 -7.3125 C 17.3125 -4.78125 16.628906 -2.863281 15.265625 -1.5625 C 13.898438 -0.269531 11.90625 0.375 9.28125 0.375 C 6.65625 0.375 4.660156 -0.269531 3.296875 -1.5625 C 1.929688 -2.863281 1.25 -4.78125 1.25 -7.3125 L 1.25 -20.578125 L 5.9375 -20.578125 L 5.9375 -8.671875 C 5.9375 -7.015625 6.195312 -5.859375 6.71875 -5.203125 C 7.238281 -4.554688 8.085938 -4.234375 9.265625 -4.234375 C 10.453125 -4.234375 11.304688 -4.554688 11.828125 -5.203125 C 12.359375 -5.859375 12.625 -7.015625 12.625 -8.671875 L 12.625 -20.578125 Z M 17.3125 -20.578125 "/></g></g></g><g fill="#272626" fill-opacity="1"><g transform="translate(221.108099, 268.936997)"><g><path d="M 1.5 -20.578125 L 7.453125 -20.578125 C 10.316406 -20.578125 12.757812 -19.597656 14.78125 -17.640625 C 16.8125 -15.691406 17.828125 -13.242188 17.828125 -10.296875 C 17.828125 -7.335938 16.816406 -4.878906 14.796875 -2.921875 C 12.773438 -0.972656 10.328125 0 7.453125 0 L 1.5 0 Z M 6.1875 -4.1875 L 6.90625 -4.1875 C 8.613281 -4.1875 10.015625 -4.765625 11.109375 -5.921875 C 12.203125 -7.078125 12.753906 -8.53125 12.765625 -10.28125 C 12.765625 -12.019531 12.21875 -13.472656 11.125 -14.640625 C 10.039062 -15.804688 8.632812 -16.390625 6.90625 -16.390625 L 6.1875 -16.390625 Z M 6.1875 -4.1875 "/></g></g></g><g fill="#272626" fill-opacity="1"><g transform="translate(136.52823, 289.556014)"><g><path d="M 5.8125 -13.40625 C 6.519531 -13.40625 7.210938 -13.300781 7.890625 -13.09375 C 8.578125 -12.894531 9.085938 -12.691406 9.421875 -12.484375 L 9.90625 -12.171875 L 8.6875 -9.765625 C 8.59375 -9.835938 8.457031 -9.921875 8.28125 -10.015625 C 8.113281 -10.117188 7.796875 -10.253906 7.328125 -10.421875 C 6.859375 -10.597656 6.421875 -10.6875 6.015625 -10.6875 C 5.515625 -10.6875 5.128906 -10.578125 4.859375 -10.359375 C 4.585938 -10.148438 4.453125 -9.863281 4.453125 -9.5 C 4.453125 -9.320312 4.515625 -9.15625 4.640625 -9 C 4.773438 -8.84375 4.992188 -8.675781 5.296875 -8.5 C 5.609375 -8.320312 5.878906 -8.179688 6.109375 -8.078125 C 6.347656 -7.972656 6.710938 -7.8125 7.203125 -7.59375 C 8.054688 -7.238281 8.78125 -6.75 9.375 -6.125 C 9.976562 -5.5 10.28125 -4.796875 10.28125 -4.015625 C 10.28125 -3.253906 10.144531 -2.59375 9.875 -2.03125 C 9.601562 -1.46875 9.226562 -1.023438 8.75 -0.703125 C 8.28125 -0.378906 7.757812 -0.144531 7.1875 0 C 6.613281 0.15625 5.988281 0.234375 5.3125 0.234375 C 4.738281 0.234375 4.175781 0.175781 3.625 0.0625 C 3.070312 -0.0507812 2.609375 -0.195312 2.234375 -0.375 C 1.859375 -0.550781 1.519531 -0.722656 1.21875 -0.890625 C 0.925781 -1.066406 0.710938 -1.210938 0.578125 -1.328125 L 0.375 -1.5 L 1.875 -4.03125 C 2 -3.914062 2.171875 -3.773438 2.390625 -3.609375 C 2.617188 -3.453125 3.015625 -3.234375 3.578125 -2.953125 C 4.148438 -2.671875 4.65625 -2.53125 5.09375 -2.53125 C 6.363281 -2.53125 7 -2.960938 7 -3.828125 C 7 -4.015625 6.953125 -4.179688 6.859375 -4.328125 C 6.765625 -4.484375 6.601562 -4.640625 6.375 -4.796875 C 6.144531 -4.953125 5.941406 -5.070312 5.765625 -5.15625 C 5.597656 -5.25 5.3125 -5.390625 4.90625 -5.578125 C 4.507812 -5.765625 4.21875 -5.90625 4.03125 -6 C 3.226562 -6.394531 2.609375 -6.890625 2.171875 -7.484375 C 1.734375 -8.078125 1.515625 -8.710938 1.515625 -9.390625 C 1.515625 -10.566406 1.953125 -11.53125 2.828125 -12.28125 C 3.703125 -13.03125 4.695312 -13.40625 5.8125 -13.40625 Z M 5.8125 -13.40625 "/></g></g></g><g fill="#272626" fill-opacity="1"><g transform="translate(156.069223, 289.556014)"><g><path d="M 3.953125 -5.28125 L 3.953125 0 L 0.953125 0 L 0.953125 -13.171875 L 3.953125 -13.171875 L 3.953125 -7.921875 L 8.203125 -7.921875 L 8.203125 -13.171875 L 11.203125 -13.171875 L 11.203125 0 L 8.203125 0 L 8.203125 -5.28125 Z M 3.953125 -5.28125 "/></g></g></g><g fill="#272626" fill-opacity="1"><g transform="translate(177.046681, 289.556014)"><g><path d="M 3.953125 -13.171875 L 3.953125 0 L 0.953125 0 L 0.953125 -13.171875 Z M 3.953125 -13.171875 "/></g></g></g><g fill="#272626" fill-opacity="1"><g transform="translate(190.777994, 289.556014)"><g><path d="M 8.5 -13.171875 L 8.5 -10.546875 L 3.953125 -10.546875 L 3.953125 -7.921875 L 8.296875 -7.921875 L 8.296875 -5.28125 L 3.953125 -5.28125 L 3.953125 -2.640625 L 8.5 -2.640625 L 8.5 0 L 0.953125 0 L 0.953125 -13.171875 Z M 8.5 -13.171875 "/></g></g></g><g fill="#272626" fill-opacity="1"><g transform="translate(208.850604, 289.556014)"><g><path d="M 3.953125 -13.171875 L 3.953125 -2.640625 L 8.5 -2.640625 L 8.5 0 L 0.953125 0 L 0.953125 -13.171875 Z M 3.953125 -13.171875 "/></g></g></g><g fill="#272626" fill-opacity="1"><g transform="translate(226.683808, 289.556014)"><g><path d="M 0.953125 -13.171875 L 4.78125 -13.171875 C 6.601562 -13.171875 8.164062 -12.546875 9.46875 -11.296875 C 10.769531 -10.046875 11.421875 -8.476562 11.421875 -6.59375 C 11.421875 -4.695312 10.769531 -3.125 9.46875 -1.875 C 8.175781 -0.625 6.613281 0 4.78125 0 L 0.953125 0 Z M 3.953125 -2.6875 L 4.421875 -2.6875 C 5.515625 -2.6875 6.410156 -3.054688 7.109375 -3.796875 C 7.804688 -4.535156 8.160156 -5.460938 8.171875 -6.578125 C 8.171875 -7.691406 7.820312 -8.617188 7.125 -9.359375 C 6.425781 -10.109375 5.523438 -10.484375 4.421875 -10.484375 L 3.953125 -10.484375 Z M 3.953125 -2.6875 "/></g></g></g><g clip-path="url(#2b374eb44c)"><path fill="#bf1b2c" d="M 163.179688 183.523438 C 154.988281 183.523438 147.027344 182.878906 139.425781 181.660156 C 141.199219 184.625 143.089844 187.519531 145.09375 190.335938 C 155.472656 204.925781 168.863281 217.445312 184.667969 226.835938 C 210.910156 211.242188 230.507812 187.03125 240.683594 159.019531 C 222.855469 173.917969 194.769531 183.523438 163.179688 183.523438 " fill-opacity="1" fill-rule="nonzero"/></g><path fill="#ed1c24" d="M 171.261719 187.347656 C 165.53125 187.347656 159.964844 186.894531 154.648438 186.042969 C 155.890625 188.117188 157.210938 190.140625 158.613281 192.109375 C 165.871094 202.316406 175.234375 211.066406 186.289062 217.632812 C 204.640625 206.730469 218.34375 189.800781 225.457031 170.210938 C 212.992188 180.628906 193.351562 187.347656 171.261719 187.347656 " fill-opacity="1" fill-rule="nonzero"/><g clip-path="url(#062b68c853)"><path fill="#bf1b2c" d="M 232.640625 79.085938 C 246.367188 89.839844 254.601562 103.574219 254.601562 118.542969 C 254.601562 153.019531 210.925781 180.964844 157.050781 180.964844 C 132.148438 180.964844 109.425781 174.996094 92.1875 165.167969 C 110.078125 179.183594 137.292969 188.132812 167.777344 188.132812 C 221.65625 188.132812 265.332031 160.183594 265.332031 125.710938 C 265.332031 107.171875 252.699219 90.515625 232.640625 79.085938 " fill-opacity="1" fill-rule="nonzero"/></g><g clip-path="url(#2382dabc19)"><path fill="#bf1b2c" d="M 152.453125 176.359375 C 199.476562 176.359375 238.730469 155.066406 247.953125 126.726562 C 248.289062 123.183594 248.480469 119.609375 248.523438 116.019531 L 224.84375 102.324219 L 184.667969 79.085938 L 120.816406 116.019531 C 121.058594 137.046875 126.402344 157.386719 135.9375 175.464844 C 141.308594 176.050781 146.824219 176.359375 152.453125 176.359375 " fill-opacity="1" fill-rule="nonzero"/></g><path fill="#ed1c24" d="M 159.359375 170.210938 C 196.304688 170.210938 227.144531 153.480469 234.386719 131.21875 C 234.648438 128.433594 234.800781 125.628906 234.832031 122.808594 L 216.230469 112.046875 L 184.667969 93.789062 L 134.503906 122.808594 C 134.695312 139.324219 138.894531 155.304688 146.386719 169.507812 C 150.601562 169.96875 154.9375 170.210938 159.359375 170.210938 " fill-opacity="1" fill-rule="nonzero"/></svg>